# Blender v2.81 (sub 16) OBJ File: ''
# www.blender.org
mtllib floor_12x12_.mtl
o Plane.002
v -6.000000 -0.000001 6.000000
v 6.000000 -0.000001 6.000000
v 6.000000 0.000001 -6.000000
v -6.000000 0.000001 -6.000000
v -6.000000 -0.010001 6.000000
v -6.000000 -0.009999 -6.000000
v 6.000000 -0.009999 -6.000000
v 6.000000 -0.010001 6.000000
vt 0.000000 0.000000
vt 1.000000 0.000000
vt 1.000000 1.000000
vt 0.000000 1.000000
vt 0.000000 0.000000
vt 0.000000 1.000000
vt 1.000000 1.000000
vt 1.000000 0.000000
vn -0.5774 0.5774 0.5774
vn 0.5774 0.5774 0.5774
vn 0.5774 0.5774 -0.5774
vn -0.5774 0.5774 -0.5774
vn -0.5774 -0.5774 0.5774
vn -0.5774 -0.5774 -0.5774
vn 0.5774 -0.5774 -0.5774
vn 0.5774 -0.5774 0.5774
usemtl None.002
s 1
f 1/1/1 2/2/2 3/3/3 4/4/4
f 5/5/5 6/6/6 7/7/7 8/8/8
f 3/3/3 2/2/2 8/8/8 7/7/7
f 1/1/1 4/4/4 6/6/6 5/5/5
f 4/4/4 3/3/3 7/7/7 6/6/6
f 2/2/2 1/1/1 5/5/5 8/8/8
