# Blender v2.81 (sub 16) OBJ File: ''
# www.blender.org
mtllib tutorial_door.mtl
o Cube_Cube.001
v -1.949085 2.143614 -0.046148
v 1.949085 2.143614 -0.046148
v -1.949085 -2.031679 0.048185
v 1.949085 -2.031679 0.048185
v -1.949085 2.144066 -0.026154
v -1.949085 -2.031228 0.068180
v 1.949085 -2.031228 0.068180
v 1.949085 2.144066 -0.026154
vt 0.000000 0.000000
vt 1.000000 0.000000
vt 1.000000 1.000000
vt 0.000000 1.000000
vt 0.000000 0.000000
vt 0.000000 1.000000
vt 1.000000 1.000000
vt 1.000000 0.000000
vn 0.0000 -0.0226 -0.9997
vn 0.0000 0.0226 0.9997
vn 0.0000 -0.9997 0.0226
vn 0.0000 0.9997 -0.0226
vn 1.0000 0.0000 0.0000
vn -1.0000 0.0000 0.0000
usemtl Material.001
s off
f 1/1/1 2/2/1 4/3/1 3/4/1
f 5/5/2 6/6/2 7/7/2 8/8/2
f 3/4/3 4/3/3 7/7/3 6/6/3
f 2/2/4 1/1/4 5/5/4 8/8/4
f 4/3/5 2/2/5 8/8/5 7/7/5
f 1/1/6 3/4/6 6/6/6 5/5/6
