# Blender v2.81 (sub 16) OBJ File: 'holowrench_test_lvl.blend'
# www.blender.org
mtllib tutorial_lvl.mtl
o Cube
v -2.000000 0.000000 19.976130
v -2.000000 4.000000 19.976130
v 2.000000 4.000000 19.976130
v 2.000000 0.000000 19.976130
v -19.942492 0.000000 -2.000000
v -19.942492 0.000000 2.000000
v -19.942492 4.000000 2.000000
v -19.942492 4.000000 -2.000000
v 2.000000 0.000000 -19.970407
v -2.000000 0.000000 -19.970407
v 2.000000 4.000000 -19.970407
v -2.000000 4.000000 -19.970407
v 19.929007 4.000000 -2.000000
v 19.929007 0.000000 -2.000000
v 19.929007 4.000000 2.000000
v 19.929007 0.000000 2.000000
v 2.000000 6.211970 1.963806
v -2.000000 6.211970 1.963806
v 2.000000 5.454428 -1.963806
v -2.000000 5.454428 -1.963806
v 2.000000 8.224806 1.491417
v -2.000000 8.224806 1.491417
v 2.000000 6.381232 -2.058404
v -2.000000 6.381232 -2.058404
v 2.000000 10.224409 0.218515
v -2.000000 10.224409 0.218515
v 2.000000 6.996147 -2.143333
v -2.000000 6.996147 -2.143333
v 2.000000 11.477105 -1.693065
v -2.000000 11.477105 -1.693065
v 2.000000 7.640534 -2.824758
v -2.000000 7.640534 -2.824758
v 2.000000 11.984766 -3.756741
v -2.000000 11.984766 -3.756741
v 2.000000 7.986095 -3.653602
v -2.000000 7.986095 -3.653602
v 2.000000 11.775461 -11.871401
v -2.000000 11.775461 -11.871401
v 2.000000 7.776791 -11.768262
v -2.000000 7.776791 -11.768262
v 3.203016 4.000000 -2.000000
v 2.000000 4.000000 -3.203016
v 0.796984 4.000000 -2.000000
v 2.000000 5.202643 -1.970071
v 2.000000 4.000000 -0.796984
v 2.000000 0.000000 -3.203016
v 3.203016 0.000000 -2.000000
v 2.000000 0.000000 -0.796984
v 0.796984 0.000000 -2.000000
v 2.000000 4.000000 3.203016
v 3.203016 4.000000 2.000000
v 2.000000 4.000000 0.796984
v 2.000000 5.202855 1.980318
v 0.796984 4.000000 2.000000
v 3.203016 0.000000 2.000000
v 2.000000 0.000000 3.203016
v 0.796984 0.000000 2.000000
v 2.000000 0.000000 0.796984
v -2.000000 4.000000 -3.203016
v -3.203016 4.000000 -2.000000
v -2.000000 4.000000 -0.796984
v -2.000000 5.202643 -1.970071
v -0.796984 4.000000 -2.000000
v -3.203016 0.000000 -2.000000
v -2.000000 0.000000 -3.203016
v -0.796984 0.000000 -2.000000
v -2.000000 0.000000 -0.796984
v -3.203016 4.000000 2.000000
v -2.000000 4.000000 3.203016
v -0.796984 4.000000 2.000000
v -2.000000 5.202855 1.980318
v -2.000000 4.000000 0.796984
v -2.000000 0.000000 3.203016
v -3.203016 0.000000 2.000000
v -2.000000 0.000000 0.796984
v -0.796984 0.000000 2.000000
v -1.979283 3.982764 -3.194633
v -1.980000 3.980000 -19.950407
v 1.980000 3.980000 -19.950407
v 1.979283 3.982764 -3.194633
v 0.794414 3.980503 -1.981418
v -0.794414 3.980503 -1.981418
v -1.980533 5.190677 -1.950784
v -1.980492 5.455218 -1.943240
v -1.980806 6.209393 1.943030
v -1.980508 5.190977 1.960944
v -1.980956 3.980518 0.794360
v -1.980957 3.980519 -0.794366
v 3.193902 0.018643 1.977998
v 19.909006 0.020000 1.980000
v 19.909006 0.020000 -1.980000
v 3.193902 0.018643 -1.977998
v 2.000000 0.020000 -0.796984
v 2.000000 0.020000 0.796984
v 1.979285 3.982766 3.194634
v 1.980000 3.980000 19.956129
v -1.980000 3.980000 19.956129
v -1.979285 3.982766 3.194634
v -0.794392 3.980507 1.981261
v 0.794392 3.980507 1.981261
v -3.194633 3.982764 -1.979283
v -19.922491 3.980000 -1.980000
v -19.922491 0.020000 -1.980000
v -3.193902 0.018643 -1.977998
v 1.980000 0.020000 19.956129
v -1.980000 0.020000 19.956129
v -1.977998 0.018643 -3.193902
v -1.980000 0.020000 -19.950407
v -1.977998 0.018643 3.193902
v 1.977998 0.018643 3.193902
v 0.796984 0.020000 2.000000
v -0.796984 0.020000 2.000000
v 1.980806 6.209393 1.943030
v 1.980508 5.190977 1.960944
v -19.922491 0.020000 1.980000
v -19.922491 3.980000 1.980000
v -3.193902 0.018643 1.977998
v -3.194634 3.982766 1.979285
v -2.000000 0.020000 0.796984
v -2.000000 0.020000 -0.796984
v 1.980000 0.020000 -19.950407
v 0.796984 0.020000 -2.000000
v -0.796984 0.020000 -2.000000
v 1.977998 0.018643 -3.193902
v 3.194633 3.982764 -1.979283
v 19.909006 3.980000 -1.980000
v 19.909006 3.980000 1.980000
v 3.194634 3.982766 1.979285
v 1.980956 3.980518 0.794360
v 1.980957 3.980519 -0.794366
v 1.980492 5.455218 -1.943240
v 1.980533 5.190677 -1.950784
v -1.980153 6.383635 -2.038387
v -1.981143 8.216480 1.471653
v -1.981336 10.209091 0.202993
v 1.981336 10.209091 0.202993
v 1.981143 8.216480 1.471653
v 1.980153 6.383635 -2.038387
v 1.981359 7.006791 -2.122651
v 1.981073 7.658735 -2.812931
v -1.981073 7.658735 -2.812931
v -1.981359 7.006791 -2.122651
v -1.981163 8.007711 -3.649565
v -1.980962 11.963732 -3.759016
v -1.981149 11.457432 -1.701631
v 1.981149 11.457432 -1.701631
v 1.981163 8.007711 -3.649565
v 1.980000 7.797300 -11.748784
v -1.980000 7.797300 -11.748784
v 1.980962 11.963732 -3.759016
v 1.980000 11.755983 -11.850892
v -1.980000 11.755983 -11.850892
vt 0.875000 0.500000
vt 0.799812 0.500000
vt 0.700188 0.500000
vt 0.625000 0.500000
vt 0.625000 0.500000
vt 0.875000 0.500000
vt 0.875000 0.500000
vt 0.875000 0.575189
vt 0.875000 0.674812
vt 0.875000 0.750000
vt 0.875000 0.750000
vt 0.875000 0.500000
vt 0.375000 0.750000
vt 0.375000 0.674812
vt 0.375000 0.575189
vt 0.375000 0.500000
vt 0.375000 0.500000
vt 0.375000 0.750000
vt 0.625000 0.750000
vt 0.700188 0.750000
vt 0.799812 0.750000
vt 0.875000 0.750000
vt 0.875000 0.750000
vt 0.625000 0.750000
vt 0.625000 0.250000
vt 0.375000 0.250000
vt 0.375000 0.250000
vt 0.625000 0.250000
vt 0.375000 0.750000
vt 0.625000 1.000000
vt 0.375000 1.000000
vt 0.375000 0.250000
vt 0.625000 0.250000
vt 0.625000 0.250000
vt 0.375000 0.250000
vt 0.125000 0.750000
vt 0.200188 0.750000
vt 0.299812 0.750000
vt 0.375000 0.750000
vt 0.125000 0.750000
vt 0.625000 0.750000
vt 0.625000 0.750000
vt 0.375000 0.000000
vt 0.625000 0.000000
vt 0.625000 0.000000
vt 0.375000 0.000000
vt 0.375000 0.000000
vt 0.625000 0.000000
vt 0.375000 0.000000
vt 0.625000 0.000000
vt 0.125000 0.500000
vt 0.125000 0.575189
vt 0.125000 0.674812
vt 0.125000 0.750000
vt 0.125000 0.750000
vt 0.125000 0.500000
vt 0.375000 0.500000
vt 0.200188 0.500000
vt 0.299812 0.500000
vt 0.375000 0.500000
vt 0.125000 0.500000
vt 0.125000 0.500000
vt 0.625000 0.500000
vt 0.625000 0.575189
vt 0.625000 0.674812
vt 0.625000 0.750000
vt 0.625000 0.750000
vt 0.625000 0.500000
vt 0.625000 0.500000
vt 0.625000 0.500000
vt 0.875000 0.750000
vt 0.875000 0.500000
vt 0.875000 0.750000
vt 0.875000 0.500000
vt 0.875000 0.500000
vt 0.875000 0.750000
vt 0.625000 0.750000
vt 0.625000 0.750000
vt 0.875000 0.750000
vt 0.625000 0.500000
vt 0.625000 0.500000
vt 0.875000 0.500000
vt 0.875000 0.500000
vt 0.625000 0.500000
vt 0.875000 0.750000
vt 0.875000 0.750000
vt 0.875000 0.500000
vt 0.625000 0.750000
vt 0.625000 0.500000
vt 0.875000 0.500000
vt 0.625000 0.500000
vt 0.625000 0.750000
vt 0.875000 0.750000
vt 0.625000 0.750000
vt 0.875000 0.500000
vt 0.125000 0.500000
vt 0.875000 0.750000
vt 0.875000 0.748770
vt 0.125000 0.750000
vt 0.875000 0.500000
vt 0.875000 0.500000
vt 0.625000 0.500000
vt 0.625000 0.500000
vt 0.700188 0.500000
vt 0.799812 0.500000
vt 0.875000 0.500000
vt 0.875000 0.500000
vt 0.875000 0.750000
vt 0.875000 0.750000
vt 0.875000 0.674812
vt 0.875000 0.575189
vt 0.375000 0.750000
vt 0.375000 0.750000
vt 0.375000 0.500000
vt 0.375000 0.500000
vt 0.375000 0.575189
vt 0.375000 0.674812
vt 0.625000 0.750000
vt 0.625000 0.750000
vt 0.875000 0.750000
vt 0.875000 0.750000
vt 0.799812 0.750000
vt 0.700188 0.750000
vt 0.625000 0.250000
vt 0.625000 0.250000
vt 0.375000 0.250000
vt 0.375000 0.250000
vt 0.375000 0.750000
vt 0.375000 1.000000
vt 0.625000 1.000000
vt 0.375000 0.250000
vt 0.375000 0.250000
vt 0.625000 0.250000
vt 0.625000 0.250000
vt 0.125000 0.750000
vt 0.125000 0.750000
vt 0.375000 0.750000
vt 0.299812 0.750000
vt 0.200188 0.750000
vt 0.625000 0.750000
vt 0.625000 0.750000
vt 0.375000 0.000000
vt 0.625000 0.000000
vt 0.625000 0.000000
vt 0.625000 0.000000
vt 0.375000 0.000000
vt 0.375000 0.000000
vt 0.375000 0.000000
vt 0.625000 0.000000
vt 0.125000 0.500000
vt 0.125000 0.500000
vt 0.125000 0.750000
vt 0.125000 0.750000
vt 0.125000 0.674812
vt 0.125000 0.575189
vt 0.375000 0.500000
vt 0.299812 0.500000
vt 0.200188 0.500000
vt 0.375000 0.500000
vt 0.125000 0.500000
vt 0.125000 0.500000
vt 0.625000 0.500000
vt 0.625000 0.500000
vt 0.625000 0.750000
vt 0.625000 0.750000
vt 0.625000 0.674812
vt 0.625000 0.575189
vt 0.625000 0.500000
vt 0.625000 0.500000
vt 0.875000 0.500000
vt 0.875000 0.750000
vt 0.875000 0.750000
vt 0.875000 0.750000
vt 0.875000 0.500000
vt 0.875000 0.500000
vt 0.875000 0.750000
vt 0.625000 0.750000
vt 0.625000 0.750000
vt 0.625000 0.500000
vt 0.625000 0.500000
vt 0.625000 0.500000
vt 0.875000 0.500000
vt 0.875000 0.500000
vt 0.875000 0.500000
vt 0.875000 0.750000
vt 0.875000 0.750000
vt 0.625000 0.750000
vt 0.625000 0.500000
vt 0.625000 0.500000
vt 0.875000 0.500000
vt 0.625000 0.750000
vt 0.625000 0.750000
vt 0.875000 0.750000
vt 0.875000 0.500000
vt 0.125000 0.500000
vt 0.875000 0.748770
vt 0.875000 0.750000
vt 0.125000 0.750000
vn 0.0000 1.0000 0.0000
vn -1.0000 0.0000 0.0000
vn 0.0000 -1.0000 0.0000
vn 0.0000 0.0000 -1.0000
vn 0.0000 0.0000 1.0000
vn 0.0000 0.0164 0.9999
vn 1.0000 0.0000 0.0000
vn 0.0000 0.0249 -0.9997
vn 0.0000 0.5370 0.8436
vn 0.0000 0.2285 0.9735
vn 0.0000 -0.1015 -0.9948
vn 0.0000 -0.7266 -0.6871
vn 0.0000 -0.1368 -0.9906
vn 0.0000 0.8364 0.5481
vn 0.0000 -0.9997 0.0258
vn 0.0000 0.9711 0.2389
vn 0.0000 -0.9230 -0.3848
vn 0.0000 -0.0258 -0.9997
vn 0.0000 0.9997 -0.0258
vn 0.2994 0.9059 -0.2994
vn 0.3001 0.9054 0.3001
vn -0.2994 0.9059 -0.2994
vn -0.3001 0.9054 0.3001
vn 0.7071 0.0000 -0.7071
vn -0.7071 0.0000 0.7071
vn 0.7071 0.0000 0.7071
vn -0.7071 0.0000 -0.7071
vn -0.0000 -1.0000 0.0001
vn 1.0000 -0.0001 0.0000
vn 0.0000 -1.0000 -0.0001
vn -0.0001 0.0002 1.0000
vn 1.0000 0.0002 -0.0001
vn -0.0000 -0.0172 -0.9999
vn 1.0000 0.0002 0.0001
vn -0.0001 0.0002 -1.0000
vn -0.0001 -1.0000 0.0000
vn -1.0000 -0.0001 0.0000
vn -1.0000 0.0002 0.0001
vn 0.0000 -0.0261 0.9997
vn 1.0000 0.0000 0.0002
vn 0.0001 0.0002 -1.0000
vn 0.0001 -1.0000 0.0000
vn -1.0000 0.0002 -0.0001
vn 0.0000 -0.5371 -0.8435
vn 0.0000 -0.2286 -0.9735
vn 0.0000 0.1019 0.9948
vn -1.0000 0.0000 0.0002
vn 0.0000 0.7270 0.6866
vn 0.0000 0.1340 0.9910
vn -1.0000 0.0004 -0.0002
vn 1.0000 0.0004 -0.0002
vn -1.0000 -0.0001 0.0001
vn 1.0000 -0.0001 0.0001
vn 0.0000 -0.8364 -0.5482
vn 0.0000 0.9997 -0.0260
vn 0.0000 -0.9710 -0.2390
vn 0.0000 0.9229 0.3850
vn 0.0000 0.0258 0.9997
vn -1.0000 -0.0000 0.0001
vn 1.0000 -0.0000 0.0001
vn 0.0000 -0.9997 0.0257
vn -0.2961 -0.9082 0.2960
vn 0.0006 1.0000 -0.0006
vn -0.2968 -0.9077 -0.2967
vn 0.0006 1.0000 0.0006
vn 0.2961 -0.9082 0.2960
vn -0.0006 1.0000 -0.0006
vn 0.2968 -0.9077 -0.2967
vn -0.0006 1.0000 0.0006
vn -0.7071 0.0004 0.7071
vn 0.7071 0.0004 -0.7071
vn -0.7071 0.0004 -0.7071
vn 0.7071 0.0004 0.7071
vn 0.0001 0.0002 1.0000
usemtl Material
s off
f 59/1/1 63/2/1 43/3/1 42/4/1 11/5/1 12/6/1
f 62/7/2 61/8/2 72/9/2 71/10/2 18/11/2 20/12/2
f 55/13/3 58/14/3 48/15/3 47/16/3 14/17/3 16/18/3
f 50/19/1 54/20/1 70/21/1 69/22/1 2/23/1 3/24/1
f 60/25/4 64/26/4 5/27/4 8/28/4
f 4/29/5 3/24/5 2/30/5 1/31/5
f 65/32/2 59/33/2 12/34/2 10/35/2
f 73/36/3 76/37/3 57/38/3 56/39/3 4/29/3 1/40/3
f 71/10/6 70/21/6 54/20/6 53/41/6 17/42/6 18/11/6
f 6/43/2 7/44/2 8/28/2 5/27/2
f 69/45/2 73/46/2 1/47/2 2/48/2
f 74/49/5 68/50/5 7/44/5 6/43/5
f 64/51/3 67/52/3 75/53/3 74/54/3 6/55/3 5/56/3
f 10/35/4 12/34/4 11/5/4 9/57/4
f 67/52/3 66/58/3 49/59/3 48/15/3 58/14/3 57/38/3 76/37/3 75/53/3
f 46/60/3 49/59/3 66/58/3 65/61/3 10/62/3 9/57/3
f 41/63/1 45/64/1 52/65/1 51/66/1 15/67/1 13/68/1
f 14/17/7 13/68/7 15/67/7 16/18/7
f 53/41/7 52/65/7 45/64/7 44/69/7 19/70/7 17/42/7
f 56/39/7 50/19/7 3/24/7 4/29/7
f 44/69/8 43/3/8 63/2/8 62/7/8 20/12/8 19/70/8
f 20/12/2 18/11/2 22/71/2 24/72/2
f 51/66/5 55/13/5 16/18/5 15/67/5
f 68/73/1 72/9/1 61/8/1 60/74/1 8/75/1 7/76/1
f 42/4/7 46/60/7 9/57/7 11/5/7
f 22/71/9 21/77/9 25/78/9 26/79/9
f 18/11/10 17/42/10 21/77/10 22/71/10
f 19/70/11 20/12/11 24/72/11 23/80/11
f 17/42/7 19/70/7 23/80/7 21/77/7
f 27/81/12 28/82/12 32/83/12 31/84/12
f 23/80/13 24/72/13 28/82/13 27/81/13
f 21/77/7 23/80/7 27/81/7 25/78/7
f 24/72/2 22/71/2 26/79/2 28/82/2
f 32/83/2 30/85/2 34/86/2 36/87/2
f 25/78/7 27/81/7 31/84/7 29/88/7
f 28/82/2 26/79/2 30/85/2 32/83/2
f 26/79/14 25/78/14 29/88/14 30/85/14
f 35/89/15 36/87/15 40/90/15 39/91/15
f 30/85/16 29/88/16 33/92/16 34/86/16
f 31/84/17 32/83/17 36/87/17 35/89/17
f 29/88/7 31/84/7 35/89/7 33/92/7
f 39/91/18 40/90/18 38/93/18 37/94/18
f 33/92/7 35/89/7 39/91/7 37/94/7
f 36/87/2 34/86/2 38/93/2 40/90/2
f 34/86/19 33/92/19 37/94/19 38/93/19
f 41/63/20 42/4/20 43/3/20 44/69/20 45/64/20
f 46/60/3 47/16/3 48/15/3 49/59/3
f 50/19/21 51/66/21 52/65/21 53/41/21 54/20/21
f 55/13/3 56/39/3 57/38/3 58/14/3
f 59/1/22 60/74/22 61/95/22 62/7/22 63/2/22
f 64/51/3 65/61/3 66/96/3 67/52/3
f 68/73/23 69/22/23 70/97/23 71/98/23 72/9/23
f 73/36/3 74/54/3 75/99/3 76/37/3
f 41/63/24 47/16/24 46/60/24 42/4/24
f 73/46/25 69/45/25 68/50/25 74/49/25
f 50/19/26 56/39/26 55/13/26 51/66/26
f 59/33/27 65/32/27 64/26/27 60/25/27
f 47/16/4 41/63/4 13/68/4 14/17/4
f 77/100/28 78/101/28 79/102/28 80/103/28 81/104/28 82/105/28
f 83/106/29 84/107/29 85/108/29 86/109/29 87/110/29 88/111/29
f 89/112/1 90/113/1 91/114/1 92/115/1 93/116/1 94/117/1
f 95/118/30 96/119/30 97/120/30 98/121/30 99/122/30 100/123/30
f 101/124/31 102/125/31 103/126/31 104/127/31
f 105/128/4 106/129/4 97/130/4 96/119/4
f 107/131/32 108/132/32 78/133/32 77/134/32
f 109/135/1 106/136/1 105/128/1 110/137/1 111/138/1 112/139/1
f 86/109/33 85/108/33 113/140/33 114/141/33 100/123/33 99/122/33
f 115/142/7 103/126/7 102/125/7 116/143/7
f 98/144/34 97/145/34 106/146/34 109/147/34
f 117/148/35 115/142/35 116/143/35 118/149/35
f 104/150/1 103/151/1 115/152/1 117/153/1 119/154/1 120/155/1
f 108/132/5 121/156/5 79/102/5 78/133/5
f 120/155/1 119/154/1 112/139/1 111/138/1 94/117/1 93/116/1 122/157/1 123/158/1
f 124/159/1 121/156/1 108/160/1 107/161/1 123/158/1 122/157/1
f 125/162/36 126/163/36 127/164/36 128/165/36 129/166/36 130/167/36
f 91/114/2 90/113/2 127/164/2 126/163/2
f 114/141/37 113/140/37 131/168/37 132/169/37 130/167/37 129/166/37
f 110/137/38 105/128/38 96/119/38 95/118/38
f 132/169/39 131/168/39 84/107/39 83/106/39 82/105/39 81/104/39
f 84/107/40 133/170/40 134/171/40 85/108/40
f 128/165/41 127/164/41 90/113/41 89/112/41
f 118/172/42 116/173/42 102/174/42 101/175/42 88/111/42 87/110/42
f 80/103/43 79/102/43 121/156/43 124/159/43
f 134/171/44 135/176/44 136/177/44 137/178/44
f 85/108/45 134/171/45 137/178/45 113/140/45
f 131/168/46 138/179/46 133/170/46 84/107/46
f 113/140/47 137/178/47 138/179/47 131/168/47
f 139/180/48 140/181/48 141/182/48 142/183/48
f 138/179/49 139/180/49 142/183/49 133/170/49
f 137/178/50 136/177/50 139/180/50 138/179/50
f 133/170/51 142/183/51 135/176/51 134/171/51
f 141/182/7 143/184/7 144/185/7 145/186/7
f 136/177/52 146/187/52 140/181/52 139/180/52
f 142/183/53 141/182/53 145/186/53 135/176/53
f 135/176/54 145/186/54 146/187/54 136/177/54
f 147/188/55 148/189/55 149/190/55 143/184/55
f 145/186/56 144/185/56 150/191/56 146/187/56
f 140/181/57 147/188/57 143/184/57 141/182/57
f 146/187/2 150/191/2 147/188/2 140/181/2
f 148/189/58 151/192/58 152/193/58 149/190/58
f 150/191/59 151/192/59 148/189/59 147/188/59
f 143/184/60 149/190/60 152/193/60 144/185/60
f 144/185/61 152/193/61 151/192/61 150/191/61
f 125/162/62 130/167/62 132/169/62 81/104/62 80/103/62
f 124/159/63 122/157/63 93/116/63 92/115/63
f 95/118/64 100/123/64 114/141/64 129/166/64 128/165/64
f 89/112/65 94/117/65 111/138/65 110/137/65
f 77/100/66 82/105/66 83/106/66 88/194/66 101/175/66
f 104/150/67 120/155/67 123/195/67 107/161/67
f 118/172/68 87/110/68 86/196/68 99/197/68 98/121/68
f 109/135/69 112/139/69 119/198/69 117/153/69
f 125/162/70 80/103/70 124/159/70 92/115/70
f 109/147/71 117/148/71 118/149/71 98/144/71
f 95/118/72 128/165/72 89/112/72 110/137/72
f 77/134/73 101/124/73 104/127/73 107/131/73
f 92/115/74 91/114/74 126/163/74 125/162/74
